<svg id="Capa_1" data-name="Capa 1" xmlns="http://www.w3.org/2000/svg" viewBox="0 0 600.16 239.33"><defs><style>.cls-1{fill:#00e9f8;}.cls-1,.cls-2,.cls-3{opacity:0.3;}.cls-2{fill:#ee3ec9;}.cls-3{fill:#eec73e;}</style></defs><circle class="cls-1" cx="67.03" cy="119.67" r="40.11"/><circle class="cls-2" cx="107.14" cy="119.67" r="40.11"/><circle class="cls-3" cx="147.25" cy="119.67" r="40.11"/><path d="M236.26,136.39H232L222.81,122c-.54,0-1.14,0-1.73,0H205.19v14.31h-3.58V98.44h20c10.89,0,13.88,5.48,13.88,11.82,0,4.77-2.06,9.54-8.79,11.22Zm-4.45-26.13c0-5-2.6-8.24-10.19-8.24H205.19V118.5h16.43C229.26,118.5,231.81,115.3,231.81,110.26Z"/><path d="M279.63,136.39H250.9V98.44h28.19V102H254.53v13.07h23v3.63h-23v14h25.1Z"/><path d="M327.67,122.41h3.79c-2.06,9.81-9.48,14.74-19,14.74-10.85,0-19.79-6.77-19.79-19.73s8.94-19.79,19.79-19.79c9.54,0,17,5,19,14.8h-3.79c-1.79-6.88-6.51-11.28-15.23-11.28-10.41,0-16.11,6.73-16.11,16.27s5.7,16.26,16.11,16.26C321.16,133.68,325.88,129.29,327.67,122.41Z"/><path d="M360.85,116.23l-10.62,9.48v10.68h-3.58V98.44h3.58v22.45l25.21-22.45h5.36l-17.24,15.4,18.06,22.55H377Z"/><path d="M423.37,136.39H395.18V98.44h3.57v34.32h24.62Z"/><path d="M467.29,136.39H438.55V98.44h28.19V102H442.18v13.07h23.05v3.63H442.18v14h25.11Z"/><path d="M515.38,125.88c0,6.72-5.69,11.27-17.08,11.27s-18.22-4-18.54-11.27h3.63c.43,6.56,8.46,7.8,14.91,7.8,7.16,0,13.34-2,13.34-7.53,0-5.21-4.34-5.75-12.47-6.78-12.2-1.52-18.11-2.71-18.11-10.68,0-7.43,7-11.06,15.88-11.06,9.11,0,15.78,2.93,16.27,10.57h-3.63c-.6-5.31-5.59-7-12.64-7-6.83,0-12.19,2-12.19,7.54s5.31,5.91,15,7.16C510.07,117.15,515.38,118.29,515.38,125.88Z"/><path d="M563.47,125.88c0,6.72-5.69,11.27-17.08,11.27s-18.21-4-18.54-11.27h3.63c.44,6.56,8.46,7.8,14.91,7.8,7.16,0,13.34-2,13.34-7.53,0-5.21-4.34-5.75-12.47-6.78-12.2-1.52-18.11-2.71-18.11-10.68,0-7.43,7-11.06,15.89-11.06,9.11,0,15.77,2.93,16.26,10.57h-3.63c-.6-5.31-5.58-7-12.63-7-6.83,0-12.2,2-12.2,7.54s5.31,5.91,15,7.16C558.16,117.15,563.47,118.29,563.47,125.88Z"/></svg>