<svg id="Capa_1" data-name="Capa 1" xmlns="http://www.w3.org/2000/svg" viewBox="0 0 464.4 239.33"><defs><style>.cls-1{fill:#00e9f8;}.cls-1,.cls-2,.cls-3{opacity:0.3;}.cls-2{fill:#ee3ec9;}.cls-3{fill:#eec73e;}</style></defs><circle class="cls-1" cx="111.72" cy="119.67" r="95.67"/><circle class="cls-2" cx="232.2" cy="119.67" r="95.67"/><circle class="cls-3" cx="352.68" cy="119.67" r="95.67"/><path d="M108.77,133.55h-3.56l-7.6-11.93a13.48,13.48,0,0,1-1.44,0H83v11.88H80v-31.5H96.62c9,0,11.52,4.54,11.52,9.81,0,4-1.71,7.92-7.29,9.31Zm-3.69-21.69c0-4.19-2.16-6.84-8.46-6.84H83V118.7H96.62C103,118.7,105.08,116,105.08,111.86Z"/><path d="M144.77,133.55H120.92v-31.5h23.4v3H123.93v10.84h19.13v3H123.93v11.65h20.84Z"/><path d="M184.64,121.94h3.15c-1.71,8.14-7.88,12.24-15.8,12.24-9,0-16.42-5.63-16.42-16.38S163,101.37,172,101.37c7.92,0,14.09,4.14,15.8,12.29h-3.15c-1.49-5.71-5.4-9.36-12.65-9.36-8.64,0-13.36,5.58-13.36,13.5s4.72,13.5,13.36,13.5C179.24,131.3,183.15,127.65,184.64,121.94Z"/><path d="M212.18,116.81l-8.82,7.87v8.87h-3v-31.5h3v18.63l20.92-18.63h4.46l-14.31,12.78,15,18.72h-3.82Z"/><path d="M264.06,133.55h-23.4v-31.5h3v28.48h20.43Z"/><path d="M300.51,133.55H276.66v-31.5h23.4v3H279.68v10.84H298.8v3H279.68v11.65h20.83Z"/><path d="M340.43,124.82c0,5.58-4.73,9.36-14.18,9.36s-15.12-3.29-15.39-9.36h3c.36,5.44,7,6.48,12.37,6.48,5.94,0,11.07-1.67,11.07-6.26,0-4.32-3.6-4.77-10.35-5.62-10.12-1.26-15-2.25-15-8.87,0-6.16,5.81-9.18,13.19-9.18,7.56,0,13.09,2.43,13.5,8.78h-3c-.49-4.41-4.63-5.85-10.48-5.85-5.67,0-10.13,1.62-10.13,6.25s4.41,4.91,12.47,5.94C336,117.57,340.43,118.52,340.43,124.82Z"/><path d="M380.34,124.82c0,5.58-4.73,9.36-14.17,9.36s-15.12-3.29-15.39-9.36h3c.36,5.44,7,6.48,12.38,6.48,5.93,0,11.06-1.67,11.06-6.26,0-4.32-3.6-4.77-10.35-5.62-10.12-1.26-15-2.25-15-8.87,0-6.16,5.8-9.18,13.18-9.18,7.56,0,13.09,2.43,13.5,8.78h-3c-.49-4.41-4.63-5.85-10.48-5.85-5.67,0-10.12,1.62-10.12,6.25s4.41,4.91,12.46,5.94C375.93,117.57,380.34,118.52,380.34,124.82Z"/></svg>